<?xml version="1.0" encoding="utf-8"?>
<!-- Svg Vector Icons : http://www.onlinewebfonts.com/icon -->
<!DOCTYPE svg PUBLIC "-//W3C//DTD SVG 1.1//EN" "http://www.w3.org/Graphics/SVG/1.1/DTD/svg11.dtd">
<svg version="1.1" xmlns="http://www.w3.org/2000/svg" xmlns:xlink="http://www.w3.org/1999/xlink" x="0px" y="0px" viewBox="0 0 1000 1000" enable-background="new 0 0 1000 1000" xml:space="preserve">
<metadata> Svg Vector Icons : http://www.onlinewebfonts.com/icon </metadata>
<g><path d="M334.9,551.6c0,0,0,150.9,166.1,150.9c166.2,0,166.2-150.9,166.2-150.9S507.6,697.5,334.9,551.6L334.9,551.6z"/><path d="M805.9,490.1c0-168.4-136.5-304.9-304.9-304.9c-168.4,0-304.9,136.5-304.9,304.9c0,82.5,32.8,157.2,85.9,212.1c24.2,21.8,50.5,40.9,79.5,56c15.8,8.1,33.2,16.4,51.4,23.9c27.9,8.3,57.5,12.9,88.1,12.9C669.4,795,805.9,658.6,805.9,490.1L805.9,490.1z M501,749.3c-143.1,0-259.2-116-259.2-259.2C241.8,346.9,357.9,231,501,231c143.1,0,259.2,116,259.2,259.1C760.2,633.3,644.1,749.3,501,749.3L501,749.3z"/><path d="M889,394.4C846.1,220,688.7,90.6,501,90.6c-187.6,0-345,129.2-387.9,303.6c0,0-107.6,17-102.9,125.3c4.8,108.2,118.3,114.8,118.3,114.8c1.4,3.5,25.3-3.3,33.8-4.8c-17.7-42.9-27.5-90-27.5-139.3c0-202.3,164-366.3,366.3-366.3c202.3,0,366.2,164,366.2,366.3c0,161.4-104.4,298.4-249.3,347.1c-9.3,3.2-19.2-1.1-19.2-1.1s-24.6-4.6-55.4,4.1c-15.1,4.3-21.6,20.5-20.7,34.7c1.1,16.9,7.5,29,25.1,31.7c22.7,3.6,55,7.6,67.2-16.7c3.3-6.6,6.9-18.9,14.6-21.5c112-38.1,201.6-124.5,244.2-234.4c0,0,112.9-13.2,116.1-117.3C993.3,412.9,889,394.4,889,394.4L889,394.4z"/></g>
</svg>